<svg width="24" height="24" viewBox="0 0 24 24" fill="none" xmlns="http://www.w3.org/2000/svg">
<path d="M22 13V12C22 8.22876 22 6.34315 20.8284 5.17157C19.6569 4 17.7712 4 14 4H10C6.22876 4 4.34315 4 3.17157 5.17157C2 6.34315 2 8.22876 2 12C2 15.7712 2 17.6569 3.17157 18.8284C4.34315 20 6.22876 20 10 20H13" stroke="white" stroke-width="1.5" stroke-linecap="round"/>
<path opacity="0.4" d="M10 16H6" stroke="white" stroke-width="1.5" stroke-linecap="round"/>
<path opacity="0.4" d="M2 10H22" stroke="white" stroke-width="1.5" stroke-linecap="round"/>
<path d="M18 20C19.6569 20 21 18.6569 21 17C21 15.3431 19.6569 14 18 14C16.3431 14 15 15.3431 15 17C15 18.6569 16.3431 20 18 20Z" stroke="white" stroke-width="1.5"/>
<path d="M20.5 19.5L21.5 20.5" stroke="white" stroke-width="1.5" stroke-linecap="round"/>
</svg>
