<svg width="24" height="24" viewBox="0 0 24 24" fill="none" xmlns="http://www.w3.org/2000/svg">
<path d="M13.926 9.70541C13.5474 9.33386 13.5474 8.74151 13.5474 7.55682V7.24712C13.5474 3.96249 13.5474 2.32018 12.6241 2.03721C11.7007 1.75425 10.711 3.09327 8.73167 5.77133L5.66953 9.91436C4.3848 11.6526 3.74244 12.5217 4.09639 13.205C4.10225 13.2164 4.10829 13.2276 4.1145 13.2387C4.48945 13.9117 5.59888 13.9117 7.81775 13.9117C9.05079 13.9117 9.6673 13.9117 10.054 14.2754" stroke="white" stroke-width="1.5"/>
<path opacity="0.5" d="M13.9256 9.70557L13.9456 9.72481C14.3323 10.0885 14.9489 10.0885 16.1819 10.0885C18.4008 10.0885 19.5102 10.0885 19.8851 10.7615C19.8914 10.7726 19.8974 10.7838 19.9033 10.7951C20.2572 11.4785 19.6148 12.3476 18.3301 14.0858L15.2679 18.2288C13.2885 20.9069 12.2988 22.2459 11.3755 21.9629C10.4521 21.68 10.4521 20.0376 10.4522 16.753V16.4434C10.4522 15.2587 10.4522 14.6663 10.0737 14.2948L10.0537 14.2755" stroke="white" stroke-width="1.5"/>
</svg>
