<svg width="24" height="24" viewBox="0 0 24 24" fill="none" xmlns="http://www.w3.org/2000/svg">
<path d="M19.764 10.0166L13.9171 15.8459L14.9762 16.9082L20.8231 11.0789L19.764 10.0166ZM9.48279 15.8459L8.10944 14.4767L7.05037 15.5389L8.42373 16.9082L9.48279 15.8459ZM8.10944 10.062L13.9563 4.23268L12.8972 3.17043L7.05038 8.99974L8.10944 10.062ZM17.5468 2.75009H18.1157V1.25009H17.5468V2.75009ZM21.2501 5.87286V6.44002H22.7501V5.87286H21.2501ZM18.1157 2.75009C19.0524 2.75009 19.6797 2.75167 20.1472 2.81434C20.5933 2.87414 20.7799 2.97697 20.9017 3.09837L21.9608 2.03612C21.5137 1.59036 20.9581 1.40962 20.3465 1.32763C19.7562 1.24851 19.0101 1.25009 18.1157 1.25009V2.75009ZM22.7501 5.87286C22.7501 4.98131 22.7517 4.23697 22.6723 3.64789C22.5899 3.03701 22.4082 2.48218 21.9608 2.03612L20.9017 3.09837C21.0232 3.21946 21.1259 3.40462 21.1857 3.84835C21.2485 4.31389 21.2501 4.93878 21.2501 5.87286H22.7501ZM8.10944 14.4767C7.44701 13.8162 7.00477 13.3731 6.71885 12.9995C6.44611 12.6431 6.3877 12.4398 6.3877 12.2693H4.8877C4.8877 12.901 5.15298 13.4215 5.52764 13.9111C5.88913 14.3834 6.418 14.9085 7.05037 15.5389L8.10944 14.4767ZM8.42373 16.9082C9.05613 17.5387 9.58271 18.0659 10.0564 18.4263C10.5475 18.7998 11.0685 19.0634 11.7 19.0634V17.5634C11.5269 17.5634 11.322 17.5043 10.9646 17.2324C10.5897 16.9473 10.1452 16.5063 9.48279 15.8459L8.42373 16.9082ZM20.8231 11.0789C21.6216 10.2827 22.1785 9.74622 22.4709 9.04242L21.0857 8.46692C20.9346 8.83068 20.6495 9.13374 19.764 10.0166L20.8231 11.0789ZM21.2501 6.44002C21.2501 7.68861 21.2368 8.10341 21.0857 8.46692L22.4709 9.04242C22.7634 8.33837 22.7501 7.56593 22.7501 6.44002H21.2501ZM13.9563 4.23268C14.8415 3.35009 15.1458 3.06541 15.5115 2.9144L14.9389 1.52797C14.2338 1.81917 13.6961 2.37399 12.8972 3.17043L13.9563 4.23268ZM17.5468 1.25009C16.4171 1.25009 15.6438 1.23688 14.9389 1.52797L15.5115 2.9144C15.8774 2.7633 16.2949 2.75009 17.5468 2.75009V1.25009ZM13.9171 15.8459C13.4058 16.3557 13.0211 16.7387 12.6905 17.0242C12.3587 17.3107 12.1351 17.4505 11.9597 17.5151L12.4781 18.9227C12.906 18.7651 13.2919 18.4868 13.6709 18.1594C14.0513 17.8309 14.4788 17.4041 14.9762 16.9082L13.9171 15.8459ZM11.9597 17.5151C11.8673 17.5492 11.7848 17.5634 11.7 17.5634V19.0634C11.9707 19.0634 12.2283 19.0147 12.4781 18.9227L11.9597 17.5151ZM7.05038 8.99974C6.5649 9.48376 6.14575 9.90112 5.82033 10.2725C5.49625 10.6424 5.21908 11.0168 5.05382 11.4278L6.44551 11.9874C6.51649 11.8109 6.66249 11.5875 6.94849 11.2611C7.23315 10.9362 7.611 10.5589 8.10944 10.062L7.05038 8.99974ZM5.05382 11.4278C4.94592 11.6961 4.8877 11.9744 4.8877 12.2693H6.3877C6.3877 12.1792 6.40412 12.0903 6.44551 11.9874L5.05382 11.4278Z" fill="#004BE0"/>
<path opacity="0.5" d="M5.57362 11.5317L6.10395 11.0013L6.10316 11.0005L5.57362 11.5317ZM9.91988 7.42238C10.2682 7.64656 10.7323 7.54593 10.9565 7.19762C11.1806 6.84932 11.08 6.38523 10.7317 6.16105L9.91988 7.42238ZM12.5003 18.5004L11.97 19.0307C11.9816 19.0423 11.9935 19.0535 12.0059 19.0644L12.5003 18.5004ZM17.8241 13.2323C17.599 12.8846 17.1347 12.7852 16.787 13.0104C16.4393 13.2355 16.3399 13.6999 16.565 14.0475L17.8241 13.2323ZM13.0232 18.9589L13.5527 18.4277L13.5357 18.4108L13.5176 18.3949L13.0232 18.9589ZM10.7317 6.16105L10.1025 5.75608L9.29066 7.01741L9.91988 7.42238L10.7317 6.16105ZM10.1025 5.75608C9.48105 5.35612 8.97949 5.03269 8.54781 4.80008C8.1067 4.56239 7.69349 4.39381 7.23659 4.32629L7.0173 5.81017C7.2367 5.84259 7.47719 5.92708 7.83627 6.12057C8.20477 6.31914 8.64987 6.60499 9.29066 7.01741L10.1025 5.75608ZM2.75497 8.5548C3.31803 7.99344 3.92197 7.39153 4.46471 6.89641C4.73588 6.64903 4.98282 6.43659 5.19464 6.27333C5.41808 6.10111 5.55981 6.0173 5.62714 5.98937L5.05228 4.60389C4.79504 4.71063 4.52524 4.89542 4.27893 5.08527C4.02101 5.28407 3.74001 5.52713 3.45378 5.78824C2.88173 6.3101 2.2531 6.93704 1.69592 7.49253L2.75497 8.5548ZM7.23659 4.32629C6.50192 4.21771 5.7465 4.31585 5.05228 4.60389L5.62714 5.98937C6.07781 5.80238 6.55915 5.74246 7.0173 5.81017L7.23659 4.32629ZM2.20851 9.97368L2.58715 10.1237L3.13972 8.7292L2.76108 8.57917L2.20851 9.97368ZM4.08336 11.1049L5.04409 12.0628L6.10316 11.0005L5.14242 10.0427L4.08336 11.1049ZM2.58715 10.1237C2.65078 10.1489 2.67626 10.159 2.70095 10.1692L3.27236 8.78231C3.23613 8.76739 3.19977 8.75299 3.13972 8.7292L2.58715 10.1237ZM5.14242 10.0427C5.09674 9.99714 5.06907 9.96953 5.04096 9.94226L3.99641 11.0188C4.01555 11.0373 4.03494 11.0567 4.08336 11.1049L5.14242 10.0427ZM2.70095 10.1692C3.18311 10.3679 3.62275 10.6562 3.99641 11.0188L5.04096 9.94226C4.53056 9.44703 3.93031 9.05339 3.27236 8.78231L2.70095 10.1692ZM1.69592 7.49253C0.922128 8.26398 1.19496 9.57206 2.20851 9.97368L2.76108 8.57917C2.75663 8.5774 2.75482 8.57608 2.75454 8.57587C2.75467 8.57604 2.75416 8.57559 2.75454 8.57587C2.75407 8.57531 2.75175 8.57224 2.75081 8.5677C2.74987 8.56317 2.75049 8.56041 2.75058 8.56007C2.75046 8.56028 2.75059 8.56004 2.75058 8.56007C2.75064 8.55998 2.75173 8.55802 2.75497 8.5548L1.69592 7.49253ZM16.565 14.0475L16.9712 14.6749L18.2303 13.8596L17.8241 13.2323L16.565 14.0475ZM15.4294 21.1848L15.3454 21.2686L16.4044 22.3309L16.4885 22.2471L15.4294 21.1848ZM16.9712 14.6749C17.3849 15.3138 17.6716 15.7574 17.8706 16.1247C18.0646 16.4825 18.1491 16.7217 18.1814 16.9395L19.6651 16.7189C19.5972 16.2623 19.4278 15.8498 19.1893 15.4098C18.956 14.9793 18.6315 14.4791 18.2303 13.8596L16.9712 14.6749ZM16.4885 22.2471C17.0456 21.6916 17.6745 21.0648 18.1979 20.4945C18.4598 20.2091 18.7036 19.9289 18.9031 19.6717C19.0934 19.4262 19.279 19.1569 19.3863 18.8999L18.0021 18.3221C17.9743 18.3887 17.8904 18.5298 17.7177 18.7526C17.5539 18.9637 17.3409 19.2099 17.0928 19.4802C16.5962 20.0213 15.9925 20.6235 15.4294 21.1848L16.4885 22.2471ZM18.1814 16.9395C18.2491 17.3949 18.1893 17.8736 18.0021 18.3221L19.3863 18.8999C19.6756 18.207 19.7742 17.4526 19.6651 16.7189L18.1814 16.9395ZM13.5176 18.3949L12.9947 17.9365L12.0059 19.0644L12.5287 19.5228L13.5176 18.3949ZM15.446 21.2974C15.2313 20.7588 15.1023 20.4317 14.9327 20.1225L13.6176 20.8439C13.7329 21.0541 13.825 21.2818 14.0526 21.8528L15.446 21.2974ZM12.4936 19.49C12.9294 19.9245 13.1028 20.0991 13.2508 20.288L14.4314 19.3627C14.2139 19.0851 13.9638 18.8375 13.5527 18.4277L12.4936 19.49ZM14.9327 20.1225C14.7866 19.8561 14.6189 19.6019 14.4314 19.3627L13.2508 20.288C13.388 20.463 13.5107 20.649 13.6176 20.8439L14.9327 20.1225ZM15.3454 21.2686C15.3517 21.2623 15.3622 21.2558 15.3738 21.2526C15.3836 21.2498 15.391 21.2501 15.3962 21.2512C15.4013 21.2522 15.4099 21.2551 15.4202 21.2632C15.4319 21.2726 15.4413 21.2856 15.446 21.2974L14.0526 21.8528C14.4366 22.8159 15.6845 23.0486 16.4044 22.3309L15.3454 21.2686ZM13.0306 17.9701L12.7494 17.6889L11.6888 18.7495L11.97 19.0307L13.0306 17.9701ZM5.04329 12.062L5.21953 12.2382L6.28019 11.1776L6.10395 11.0013L5.04329 12.062Z" fill="#004BE0"/>
<path opacity="0.5" d="M10.8564 14.17C11.1497 13.8776 11.1504 13.4027 10.858 13.1094C10.5655 12.816 10.0906 12.8153 9.79733 13.1078L10.8564 14.17ZM8.79636 16.2239L10.8564 14.17L9.79733 13.1078L7.7373 15.1616L8.79636 16.2239ZM16.6641 9.00008C16.1983 9.46445 15.4422 9.46445 14.9764 9.00008L13.9174 10.0623C14.9685 11.1104 16.6719 11.1104 17.7231 10.0623L16.6641 9.00008ZM14.9764 9.00008C14.5119 8.53695 14.5119 7.787 14.9764 7.32387L13.9174 6.26161C12.8649 7.31089 12.8649 9.01305 13.9174 10.0623L14.9764 9.00008ZM14.9764 7.32387C15.4422 6.85949 16.1983 6.85949 16.6641 7.32387L17.7231 6.26161C16.6719 5.21358 14.9685 5.21358 13.9174 6.26161L14.9764 7.32387ZM16.6641 7.32387C17.1286 7.787 17.1286 8.53695 16.6641 9.00008L17.7231 10.0623C18.7756 9.01305 18.7756 7.31089 17.7231 6.26161L16.6641 7.32387Z" fill="#004BE0"/>
</svg>
