<svg width="22" height="22" viewBox="0 0 22 22" fill="none" xmlns="http://www.w3.org/2000/svg">
<path fill-rule="evenodd" clip-rule="evenodd" d="M8.00044 3.5C8.1634 3.50003 8.32192 3.55315 8.45201 3.6513C8.5821 3.74945 8.67667 3.8873 8.72144 4.044L9.53444 6.89C9.70949 7.50292 10.0379 8.0611 10.4886 8.51183C10.9393 8.96255 11.4975 9.29095 12.1104 9.466L14.9564 10.279C15.113 10.3239 15.2508 10.4185 15.3488 10.5486C15.4469 10.6786 15.4999 10.8371 15.4999 11C15.4999 11.1629 15.4469 11.3214 15.3488 11.4514C15.2508 11.5815 15.113 11.6761 14.9564 11.721L12.1104 12.534C11.4975 12.709 10.9393 13.0374 10.4886 13.4882C10.0379 13.9389 9.70949 14.4971 9.53444 15.11L8.72144 17.956C8.67658 18.1126 8.58195 18.2503 8.45187 18.3484C8.32179 18.4464 8.16333 18.4995 8.00044 18.4995C7.83754 18.4995 7.67908 18.4464 7.549 18.3484C7.41892 18.2503 7.32429 18.1126 7.27944 17.956L6.46644 15.11C6.29139 14.4971 5.96299 13.9389 5.51226 13.4882C5.06154 13.0374 4.50335 12.709 3.89044 12.534L1.04444 11.721C0.887841 11.6761 0.750108 11.5815 0.652059 11.4514C0.55401 11.3214 0.500977 11.1629 0.500977 11C0.500977 10.8371 0.55401 10.6786 0.652059 10.5486C0.750108 10.4185 0.887841 10.3239 1.04444 10.279L3.89044 9.466C4.50335 9.29095 5.06154 8.96255 5.51226 8.51183C5.96299 8.0611 6.29139 7.50292 6.46644 6.89L7.27944 4.044C7.3242 3.8873 7.41878 3.74945 7.54887 3.6513C7.67895 3.55315 7.83747 3.50003 8.00044 3.5ZM17.0004 0.5C17.1678 0.499907 17.3303 0.555764 17.4622 0.658686C17.5941 0.761609 17.6878 0.905686 17.7284 1.068L17.9864 2.104C18.1023 2.56533 18.3412 2.98659 18.6775 3.32294C19.0138 3.65928 19.4351 3.89811 19.8964 4.014L20.9324 4.272C21.0951 4.31228 21.2395 4.40586 21.3428 4.5378C21.446 4.66974 21.5021 4.83246 21.5021 5C21.5021 5.16754 21.446 5.33026 21.3428 5.4622C21.2395 5.59414 21.0951 5.68772 20.9324 5.728L19.8964 5.986C19.4351 6.10189 19.0138 6.34072 18.6775 6.67706C18.3412 7.01341 18.1023 7.43467 17.9864 7.896L17.7284 8.932C17.6882 9.09463 17.5946 9.23908 17.4626 9.34233C17.3307 9.44558 17.168 9.50168 17.0004 9.50168C16.8329 9.50168 16.6702 9.44558 16.5382 9.34233C16.4063 9.23908 16.3127 9.09463 16.2724 8.932L16.0144 7.896C15.8985 7.43467 15.6597 7.01341 15.3234 6.67706C14.987 6.34072 14.5658 6.10189 14.1044 5.986L13.0684 5.728C12.9058 5.68772 12.7614 5.59414 12.6581 5.4622C12.5549 5.33026 12.4988 5.16754 12.4988 5C12.4988 4.83246 12.5549 4.66974 12.6581 4.5378C12.7614 4.40586 12.9058 4.31228 13.0684 4.272L14.1044 4.014C14.5658 3.89811 14.987 3.65928 15.3234 3.32294C15.6597 2.98659 15.8985 2.56533 16.0144 2.104L16.2724 1.068C16.313 0.905686 16.4067 0.761609 16.5387 0.658686C16.6706 0.555764 16.8331 0.499907 17.0004 0.5ZM15.5004 14C15.658 13.9999 15.8115 14.0494 15.9393 14.1415C16.0671 14.2336 16.1627 14.3636 16.2124 14.513L16.6064 15.696C16.7564 16.143 17.1064 16.495 17.5544 16.644L18.7374 17.039C18.8864 17.089 19.0159 17.1845 19.1076 17.3121C19.1994 17.4397 19.2487 17.5929 19.2487 17.75C19.2487 17.9071 19.1994 18.0603 19.1076 18.1879C19.0159 18.3155 18.8864 18.411 18.7374 18.461L17.5544 18.856C17.3337 18.9297 17.1332 19.0537 16.9686 19.2182C16.8041 19.3827 16.6801 19.5833 16.6064 19.804L16.2114 20.987C16.1614 21.136 16.0659 21.2655 15.9383 21.3572C15.8107 21.4489 15.6576 21.4983 15.5004 21.4983C15.3433 21.4983 15.1901 21.4489 15.0626 21.3572C14.935 21.2655 14.8394 21.136 14.7894 20.987L14.3944 19.804C14.3208 19.5833 14.1968 19.3827 14.0322 19.2182C13.8677 19.0537 13.6672 18.9297 13.4464 18.856L12.2634 18.461C12.1145 18.411 11.985 18.3155 11.8932 18.1879C11.8015 18.0603 11.7521 17.9071 11.7521 17.75C11.7521 17.5929 11.8015 17.4397 11.8932 17.3121C11.985 17.1845 12.1145 17.089 12.2634 17.039L13.4464 16.644C13.6672 16.5703 13.8677 16.4463 14.0322 16.2818C14.1968 16.1173 14.3208 15.9167 14.3944 15.696L14.7894 14.513C14.8392 14.3637 14.9346 14.2339 15.0622 14.1418C15.1898 14.0497 15.3431 14.0001 15.5004 14Z" fill="#006EFF"/>
</svg>
