<svg width="21" height="21" viewBox="0 0 21 21" fill="none" xmlns="http://www.w3.org/2000/svg">
<path fill-rule="evenodd" clip-rule="evenodd" d="M7.49946 3C7.66242 3.00003 7.82094 3.05315 7.95103 3.1513C8.08112 3.24945 8.1757 3.3873 8.22046 3.544L9.03346 6.39C9.20851 7.00292 9.53691 7.5611 9.98763 8.01183C10.4384 8.46255 10.9965 8.79095 11.6095 8.966L14.4555 9.779C14.6121 9.82386 14.7498 9.91848 14.8478 10.0486C14.9459 10.1786 14.9989 10.3371 14.9989 10.5C14.9989 10.6629 14.9459 10.8214 14.8478 10.9514C14.7498 11.0815 14.6121 11.1761 14.4555 11.221L11.6095 12.034C10.9965 12.209 10.4384 12.5374 9.98763 12.9882C9.53691 13.4389 9.20851 13.9971 9.03346 14.61L8.22046 17.456C8.1756 17.6126 8.08098 17.7503 7.9509 17.8484C7.82082 17.9464 7.66235 17.9995 7.49946 17.9995C7.33657 17.9995 7.1781 17.9464 7.04802 17.8484C6.91794 17.7503 6.82332 17.6126 6.77846 17.456L5.96546 14.61C5.79041 13.9971 5.46201 13.4389 5.01129 12.9882C4.56056 12.5374 4.00238 12.209 3.38946 12.034L0.543459 11.221C0.386864 11.1761 0.249131 11.0815 0.151082 10.9514C0.0530334 10.8214 0 10.6629 0 10.5C0 10.3371 0.0530334 10.1786 0.151082 10.0486C0.249131 9.91848 0.386864 9.82386 0.543459 9.779L3.38946 8.966C4.00238 8.79095 4.56056 8.46255 5.01129 8.01183C5.46201 7.5611 5.79041 7.00292 5.96546 6.39L6.77846 3.544C6.82322 3.3873 6.9178 3.24945 7.04789 3.1513C7.17798 3.05315 7.3365 3.00003 7.49946 3ZM16.4995 1.16387e-07C16.6668 -9.30612e-05 16.8293 0.0557639 16.9612 0.158686C17.0931 0.261609 17.1869 0.405686 17.2275 0.568L17.4855 1.604C17.6013 2.06533 17.8402 2.48659 18.1765 2.82294C18.5129 3.15928 18.9341 3.39811 19.3955 3.514L20.4315 3.772C20.5941 3.81228 20.7385 3.90586 20.8418 4.0378C20.945 4.16974 21.0011 4.33246 21.0011 4.5C21.0011 4.66754 20.945 4.83026 20.8418 4.9622C20.7385 5.09414 20.5941 5.18772 20.4315 5.228L19.3955 5.486C18.9341 5.60189 18.5129 5.84072 18.1765 6.17706C17.8402 6.51341 17.6013 6.93467 17.4855 7.396L17.2275 8.432C17.1872 8.59463 17.0936 8.73908 16.9617 8.84233C16.8297 8.94558 16.667 9.00168 16.4995 9.00168C16.3319 9.00168 16.1692 8.94558 16.0373 8.84233C15.9053 8.73908 15.8117 8.59463 15.7715 8.432L15.5135 7.396C15.3976 6.93467 15.1587 6.51341 14.8224 6.17706C14.4861 5.84072 14.0648 5.60189 13.6035 5.486L12.5675 5.228C12.4048 5.18772 12.2604 5.09414 12.1571 4.9622C12.0539 4.83026 11.9978 4.66754 11.9978 4.5C11.9978 4.33246 12.0539 4.16974 12.1571 4.0378C12.2604 3.90586 12.4048 3.81228 12.5675 3.772L13.6035 3.514C14.0648 3.39811 14.4861 3.15928 14.8224 2.82294C15.1587 2.48659 15.3976 2.06533 15.5135 1.604L15.7715 0.568C15.8121 0.405686 15.9058 0.261609 16.0377 0.158686C16.1696 0.0557639 16.3321 -9.30612e-05 16.4995 1.16387e-07ZM14.9995 13.5C15.157 13.4999 15.3105 13.5494 15.4383 13.6415C15.5661 13.7336 15.6617 13.8636 15.7115 14.013L16.1055 15.196C16.2555 15.643 16.6055 15.995 17.0535 16.144L18.2365 16.539C18.3854 16.589 18.5149 16.6845 18.6067 16.8121C18.6984 16.9397 18.7478 17.0929 18.7478 17.25C18.7478 17.4071 18.6984 17.5603 18.6067 17.6879C18.5149 17.8155 18.3854 17.911 18.2365 17.961L17.0535 18.356C16.8327 18.4297 16.6322 18.5537 16.4677 18.7182C16.3031 18.8827 16.1791 19.0833 16.1055 19.304L15.7105 20.487C15.6604 20.636 15.5649 20.7655 15.4373 20.8572C15.3098 20.9489 15.1566 20.9983 14.9995 20.9983C14.8423 20.9983 14.6892 20.9489 14.5616 20.8572C14.434 20.7655 14.3385 20.636 14.2885 20.487L13.8935 19.304C13.8198 19.0833 13.6958 18.8827 13.5313 18.7182C13.3667 18.5537 13.1662 18.4297 12.9455 18.356L11.7625 17.961C11.6135 17.911 11.484 17.8155 11.3923 17.6879C11.3005 17.5603 11.2512 17.4071 11.2512 17.25C11.2512 17.0929 11.3005 16.9397 11.3923 16.8121C11.484 16.6845 11.6135 16.589 11.7625 16.539L12.9455 16.144C13.1662 16.0703 13.3667 15.9463 13.5313 15.7818C13.6958 15.6173 13.8198 15.4167 13.8935 15.196L14.2885 14.013C14.3382 13.8637 14.4336 13.7339 14.5612 13.6418C14.6888 13.5497 14.8421 13.5001 14.9995 13.5Z" fill="white"/>
</svg>
