<svg width="236" height="99" viewBox="0 0 236 99" fill="none" xmlns="http://www.w3.org/2000/svg">
<rect width="236" height="44" rx="8" fill="black"/>
<rect x="16" y="9" width="26" height="26" rx="13" fill="#004BE0"/>
<path d="M24 20.3335C24 17.5721 26.2386 15.3335 29 15.3335C31.7614 15.3335 34 17.5721 34 20.3335C34 21.8139 33.3566 23.1441 32.3341 24.0596C31.587 24.7286 31.2134 25.0632 31.1128 25.1873C30.7883 25.5878 30.7739 25.6199 30.6921 26.1288C30.6667 26.2866 30.6667 26.5245 30.6667 27.0002C30.6667 27.6232 30.6667 27.9348 30.5327 28.1668C30.4449 28.3188 30.3187 28.4451 30.1667 28.5328C29.9346 28.6668 29.6231 28.6668 29 28.6668C28.3769 28.6668 28.0654 28.6668 27.8333 28.5328C27.6813 28.4451 27.5551 28.3188 27.4673 28.1668C27.3333 27.9348 27.3333 27.6232 27.3333 27.0002C27.3333 26.5245 27.3333 26.2866 27.3079 26.1288C27.2261 25.6199 27.2117 25.5878 26.8872 25.1873C26.7866 25.0632 26.413 24.7286 25.6658 24.0596C24.6434 23.1441 24 21.8139 24 20.3335Z" stroke="white"/>
<path opacity="0.5" d="M30.6673 27H27.334" stroke="white"/>
<path opacity="0.5" d="M29.5243 19.6665L28.0957 21.6665H30.0957L28.6672 23.6665" stroke="white" stroke-linecap="round" stroke-linejoin="round"/>
<path d="M55.8295 19.9545C55.7784 19.5227 55.571 19.1875 55.2074 18.9489C54.8438 18.7102 54.3977 18.5909 53.8693 18.5909C53.483 18.5909 53.1449 18.6534 52.8551 18.7784C52.5682 18.9034 52.3438 19.0753 52.1818 19.294C52.0227 19.5128 51.9432 19.7614 51.9432 20.0398C51.9432 20.2727 51.9986 20.473 52.1094 20.6406C52.223 20.8054 52.3679 20.9432 52.544 21.054C52.7202 21.1619 52.9048 21.2514 53.098 21.3224C53.2912 21.3906 53.4688 21.446 53.6307 21.4886L54.517 21.7273C54.7443 21.7869 54.9972 21.8693 55.2756 21.9744C55.5568 22.0795 55.8253 22.223 56.081 22.4048C56.3395 22.5838 56.5526 22.8139 56.7202 23.0952C56.8878 23.3764 56.9716 23.7216 56.9716 24.1307C56.9716 24.6023 56.848 25.0284 56.6009 25.4091C56.3565 25.7898 55.9986 26.0923 55.527 26.3168C55.0582 26.5412 54.4886 26.6534 53.8182 26.6534C53.1932 26.6534 52.652 26.5526 52.1946 26.3509C51.7401 26.1491 51.3821 25.8679 51.1207 25.5071C50.8622 25.1463 50.7159 24.7273 50.6818 24.25H51.7727C51.8011 24.5795 51.9119 24.8523 52.1051 25.0682C52.3011 25.2812 52.5483 25.4403 52.8466 25.5455C53.1477 25.6477 53.4716 25.6989 53.8182 25.6989C54.2216 25.6989 54.5838 25.6335 54.9048 25.5028C55.2259 25.3693 55.4801 25.1847 55.6676 24.9489C55.8551 24.7102 55.9489 24.4318 55.9489 24.1136C55.9489 23.8239 55.8679 23.5881 55.706 23.4062C55.544 23.2244 55.331 23.0767 55.0668 22.9631C54.8026 22.8494 54.517 22.75 54.2102 22.6648L53.1364 22.358C52.4545 22.1619 51.9148 21.8821 51.517 21.5185C51.1193 21.1548 50.9205 20.679 50.9205 20.0909C50.9205 19.6023 51.0526 19.1761 51.3168 18.8125C51.5838 18.446 51.9418 18.1619 52.3906 17.9602C52.8423 17.7557 53.3466 17.6534 53.9034 17.6534C54.4659 17.6534 54.9659 17.7543 55.4034 17.956C55.8409 18.1548 56.1875 18.4276 56.4432 18.7741C56.7017 19.1207 56.8381 19.5142 56.8523 19.9545H55.8295ZM58.5728 28.9545V19.9545H59.5444V20.9943H59.6637C59.7376 20.8807 59.8398 20.7358 59.9705 20.5597C60.104 20.3807 60.2944 20.2216 60.5415 20.0824C60.7915 19.9403 61.1296 19.8693 61.5558 19.8693C62.1069 19.8693 62.5927 20.0071 63.0131 20.2827C63.4336 20.5582 63.7617 20.9489 63.9975 21.4545C64.2333 21.9602 64.3512 22.5568 64.3512 23.2443C64.3512 23.9375 64.2333 24.5384 63.9975 25.0469C63.7617 25.5526 63.435 25.9446 63.0174 26.223C62.5998 26.4986 62.1183 26.6364 61.5728 26.6364C61.1523 26.6364 60.8157 26.5668 60.5629 26.4276C60.31 26.2855 60.1154 26.125 59.979 25.946C59.8427 25.7642 59.7376 25.6136 59.6637 25.4943H59.5785V28.9545H58.5728ZM59.5614 23.2273C59.5614 23.7216 59.6339 24.1577 59.7788 24.5355C59.9237 24.9105 60.1353 25.2045 60.4137 25.4176C60.6921 25.6278 61.033 25.733 61.4364 25.733C61.8569 25.733 62.2077 25.6222 62.489 25.4006C62.7731 25.1761 62.9862 24.875 63.1282 24.4972C63.2731 24.1165 63.3455 23.6932 63.3455 23.2273C63.3455 22.767 63.2745 22.3523 63.1325 21.983C62.9933 21.6108 62.7816 21.3168 62.4975 21.1009C62.2163 20.8821 61.8626 20.7727 61.4364 20.7727C61.0273 20.7727 60.6836 20.8764 60.4052 21.0838C60.1268 21.2884 59.9165 21.5753 59.7745 21.9446C59.6325 22.3111 59.5614 22.7386 59.5614 23.2273ZM67.8114 26.6534C67.3967 26.6534 67.0202 26.5753 66.6822 26.419C66.3441 26.2599 66.0756 26.0312 65.8768 25.733C65.6779 25.4318 65.5785 25.0682 65.5785 24.642C65.5785 24.267 65.6523 23.9631 65.8001 23.7301C65.9478 23.4943 66.1452 23.3097 66.3924 23.1761C66.6396 23.0426 66.9123 22.9432 67.2106 22.8778C67.5117 22.8097 67.8143 22.7557 68.1183 22.7159C68.516 22.6648 68.8384 22.6264 69.0856 22.6009C69.3356 22.5724 69.5174 22.5256 69.631 22.4602C69.7475 22.3949 69.8058 22.2812 69.8058 22.1193V22.0852C69.8058 21.6648 69.6907 21.3381 69.4606 21.1051C69.2333 20.8722 68.8881 20.7557 68.4251 20.7557C67.945 20.7557 67.5685 20.8608 67.2958 21.071C67.0231 21.2812 66.8313 21.5057 66.7205 21.7443L65.766 21.4034C65.9364 21.0057 66.1637 20.696 66.4478 20.4744C66.7347 20.25 67.0472 20.0937 67.3853 20.0057C67.7262 19.9148 68.0614 19.8693 68.391 19.8693C68.6012 19.8693 68.8427 19.8949 69.1154 19.946C69.391 19.9943 69.6566 20.0952 69.9123 20.2486C70.1708 20.402 70.3853 20.6335 70.5558 20.9432C70.7262 21.2528 70.8114 21.6676 70.8114 22.1875V26.5H69.8058V25.6136H69.7546C69.6864 25.7557 69.5728 25.9077 69.4137 26.0696C69.2546 26.2315 69.043 26.3693 68.7788 26.483C68.5146 26.5966 68.1921 26.6534 67.8114 26.6534ZM67.9648 25.75C68.3626 25.75 68.6978 25.6719 68.9705 25.5156C69.2461 25.3594 69.4535 25.1577 69.5927 24.9105C69.7347 24.6634 69.8058 24.4034 69.8058 24.1307V23.2102C69.7631 23.2614 69.6694 23.3082 69.5245 23.3509C69.3825 23.3906 69.2177 23.4261 69.0302 23.4574C68.8455 23.4858 68.6651 23.5114 68.489 23.5341C68.3157 23.554 68.1751 23.571 68.0671 23.5852C67.8058 23.6193 67.5614 23.6747 67.3342 23.7514C67.1097 23.8253 66.9279 23.9375 66.7887 24.0881C66.6523 24.2358 66.5842 24.4375 66.5842 24.6932C66.5842 25.0426 66.7134 25.3068 66.9719 25.4858C67.2333 25.6619 67.5643 25.75 67.9648 25.75ZM72.647 26.5V19.9545H73.6186V20.9432H73.6868C73.8061 20.6193 74.022 20.3565 74.3345 20.1548C74.647 19.9531 74.9993 19.8523 75.3913 19.8523C75.4652 19.8523 75.5575 19.8537 75.6683 19.8565C75.7791 19.8594 75.8629 19.8636 75.9197 19.8693V20.892C75.8857 20.8835 75.8075 20.8707 75.6854 20.8537C75.5661 20.8338 75.4396 20.8239 75.3061 20.8239C74.9879 20.8239 74.7038 20.8906 74.4538 21.0241C74.2067 21.1548 74.0107 21.3366 73.8658 21.5696C73.7237 21.7997 73.6527 22.0625 73.6527 22.358V26.5H72.647ZM78.0494 24.1136L78.0323 22.8693H78.2369L81.1005 19.9545H82.3448L79.2937 23.0398H79.2085L78.0494 24.1136ZM77.1119 26.5V17.7727H78.1175V26.5H77.1119ZM81.271 26.5L78.7141 23.2614L79.43 22.5625L82.5494 26.5H81.271ZM87.0142 26.5V19.9545H88.0199V26.5H87.0142ZM87.5256 18.8636C87.3295 18.8636 87.1605 18.7969 87.0185 18.6634C86.8793 18.5298 86.8097 18.3693 86.8097 18.1818C86.8097 17.9943 86.8793 17.8338 87.0185 17.7003C87.1605 17.5668 87.3295 17.5 87.5256 17.5C87.7216 17.5 87.8892 17.5668 88.0284 17.7003C88.1705 17.8338 88.2415 17.9943 88.2415 18.1818C88.2415 18.3693 88.1705 18.5298 88.0284 18.6634C87.8892 18.7969 87.7216 18.8636 87.5256 18.8636ZM92.3335 26.6364C91.788 26.6364 91.3065 26.4986 90.8888 26.223C90.4712 25.9446 90.1445 25.5526 89.9087 25.0469C89.6729 24.5384 89.555 23.9375 89.555 23.2443C89.555 22.5568 89.6729 21.9602 89.9087 21.4545C90.1445 20.9489 90.4727 20.5582 90.8931 20.2827C91.3136 20.0071 91.7994 19.8693 92.3505 19.8693C92.7766 19.8693 93.1133 19.9403 93.3604 20.0824C93.6104 20.2216 93.8008 20.3807 93.9315 20.5597C94.065 20.7358 94.1687 20.8807 94.2425 20.9943H94.3278V17.7727H95.3335V26.5H94.3619V25.4943H94.2425C94.1687 25.6136 94.0636 25.7642 93.9272 25.946C93.7908 26.125 93.5962 26.2855 93.3434 26.4276C93.0906 26.5668 92.7539 26.6364 92.3335 26.6364ZM92.4698 25.733C92.8732 25.733 93.2141 25.6278 93.4925 25.4176C93.771 25.2045 93.9826 24.9105 94.1275 24.5355C94.2724 24.1577 94.3448 23.7216 94.3448 23.2273C94.3448 22.7386 94.2738 22.3111 94.1317 21.9446C93.9897 21.5753 93.7795 21.2884 93.5011 21.0838C93.2227 20.8764 92.8789 20.7727 92.4698 20.7727C92.0437 20.7727 91.6886 20.8821 91.4045 21.1009C91.1232 21.3168 90.9116 21.6108 90.7695 21.983C90.6303 22.3523 90.5607 22.767 90.5607 23.2273C90.5607 23.6932 90.6317 24.1165 90.7738 24.4972C90.9187 24.875 91.1317 25.1761 91.413 25.4006C91.6971 25.6222 92.0494 25.733 92.4698 25.733ZM100.059 26.6364C99.4286 26.6364 98.8846 26.4972 98.4272 26.2188C97.9727 25.9375 97.6218 25.5455 97.3746 25.0426C97.1303 24.5369 97.0082 23.9489 97.0082 23.2784C97.0082 22.608 97.1303 22.017 97.3746 21.5057C97.6218 20.9915 97.9656 20.5909 98.4059 20.304C98.8491 20.0142 99.3661 19.8693 99.957 19.8693C100.298 19.8693 100.635 19.9261 100.967 20.0398C101.299 20.1534 101.602 20.3381 101.875 20.5938C102.147 20.8466 102.365 21.1818 102.527 21.5994C102.689 22.017 102.77 22.5312 102.77 23.142V23.5682H97.7241V22.6989H101.747C101.747 22.3295 101.673 22 101.525 21.7102C101.38 21.4205 101.173 21.1918 100.903 21.0241C100.636 20.8565 100.321 20.7727 99.957 20.7727C99.5565 20.7727 99.2099 20.8722 98.9173 21.071C98.6275 21.267 98.4045 21.5227 98.2482 21.8381C98.092 22.1534 98.0138 22.4915 98.0138 22.8523V23.4318C98.0138 23.9261 98.0991 24.3452 98.2695 24.6889C98.4428 25.0298 98.6829 25.2898 98.9897 25.4688C99.2965 25.6449 99.6531 25.733 100.059 25.733C100.324 25.733 100.562 25.696 100.775 25.6222C100.991 25.5455 101.177 25.4318 101.333 25.2812C101.49 25.1278 101.61 24.9375 101.696 24.7102L102.667 24.983C102.565 25.3125 102.393 25.6023 102.152 25.8523C101.91 26.0994 101.612 26.2926 101.257 26.4318C100.902 26.5682 100.502 26.6364 100.059 26.6364ZM106.225 26.6534C105.811 26.6534 105.434 26.5753 105.096 26.419C104.758 26.2599 104.49 26.0312 104.291 25.733C104.092 25.4318 103.993 25.0682 103.993 24.642C103.993 24.267 104.066 23.9631 104.214 23.7301C104.362 23.4943 104.559 23.3097 104.806 23.1761C105.054 23.0426 105.326 22.9432 105.625 22.8778C105.926 22.8097 106.228 22.7557 106.532 22.7159C106.93 22.6648 107.252 22.6264 107.5 22.6009C107.75 22.5724 107.931 22.5256 108.045 22.4602C108.162 22.3949 108.22 22.2812 108.22 22.1193V22.0852C108.22 21.6648 108.105 21.3381 107.875 21.1051C107.647 20.8722 107.302 20.7557 106.839 20.7557C106.359 20.7557 105.983 20.8608 105.71 21.071C105.437 21.2812 105.245 21.5057 105.135 21.7443L104.18 21.4034C104.35 21.0057 104.578 20.696 104.862 20.4744C105.149 20.25 105.461 20.0937 105.799 20.0057C106.14 19.9148 106.475 19.8693 106.805 19.8693C107.015 19.8693 107.257 19.8949 107.529 19.946C107.805 19.9943 108.071 20.0952 108.326 20.2486C108.585 20.402 108.799 20.6335 108.97 20.9432C109.14 21.2528 109.225 21.6676 109.225 22.1875V26.5H108.22V25.6136H108.169C108.1 25.7557 107.987 25.9077 107.828 26.0696C107.669 26.2315 107.457 26.3693 107.193 26.483C106.929 26.5966 106.606 26.6534 106.225 26.6534ZM106.379 25.75C106.777 25.75 107.112 25.6719 107.385 25.5156C107.66 25.3594 107.868 25.1577 108.007 24.9105C108.149 24.6634 108.22 24.4034 108.22 24.1307V23.2102C108.177 23.2614 108.083 23.3082 107.939 23.3509C107.797 23.3906 107.632 23.4261 107.444 23.4574C107.26 23.4858 107.079 23.5114 106.903 23.5341C106.73 23.554 106.589 23.571 106.481 23.5852C106.22 23.6193 105.975 23.6747 105.748 23.7514C105.524 23.8253 105.342 23.9375 105.203 24.0881C105.066 24.2358 104.998 24.4375 104.998 24.6932C104.998 25.0426 105.127 25.3068 105.386 25.4858C105.647 25.6619 105.978 25.75 106.379 25.75ZM115.697 21.4205L114.794 21.6761C114.737 21.5256 114.653 21.3793 114.543 21.2372C114.435 21.0923 114.287 20.973 114.099 20.8793C113.912 20.7855 113.672 20.7386 113.379 20.7386C112.979 20.7386 112.645 20.831 112.378 21.0156C112.114 21.1974 111.982 21.429 111.982 21.7102C111.982 21.9602 112.072 22.1577 112.254 22.3026C112.436 22.4474 112.72 22.5682 113.107 22.6648L114.078 22.9034C114.663 23.0455 115.099 23.2628 115.386 23.5554C115.673 23.8452 115.817 24.2187 115.817 24.6761C115.817 25.0511 115.709 25.3864 115.493 25.6818C115.28 25.9773 114.982 26.2102 114.598 26.3807C114.214 26.5511 113.768 26.6364 113.26 26.6364C112.592 26.6364 112.04 26.4915 111.602 26.2017C111.165 25.9119 110.888 25.4886 110.771 24.9318L111.726 24.6932C111.817 25.0455 111.989 25.3097 112.241 25.4858C112.497 25.6619 112.831 25.75 113.243 25.75C113.712 25.75 114.084 25.6506 114.359 25.4517C114.638 25.25 114.777 25.0085 114.777 24.7273C114.777 24.5 114.697 24.3097 114.538 24.1562C114.379 24 114.135 23.8835 113.805 23.8068L112.714 23.5511C112.115 23.4091 111.675 23.1889 111.393 22.8906C111.115 22.5895 110.976 22.2131 110.976 21.7614C110.976 21.392 111.08 21.0653 111.287 20.7812C111.497 20.4972 111.783 20.2741 112.143 20.1122C112.507 19.9503 112.919 19.8693 113.379 19.8693C114.027 19.8693 114.536 20.0114 114.905 20.2955C115.277 20.5795 115.541 20.9545 115.697 21.4205ZM118.064 26.5682C117.853 26.5682 117.673 26.4929 117.522 26.3423C117.372 26.1918 117.297 26.0114 117.297 25.8011C117.297 25.5909 117.372 25.4105 117.522 25.2599C117.673 25.1094 117.853 25.0341 118.064 25.0341C118.274 25.0341 118.454 25.1094 118.605 25.2599C118.755 25.4105 118.831 25.5909 118.831 25.8011C118.831 25.9403 118.795 26.0682 118.724 26.1847C118.656 26.3011 118.564 26.3949 118.447 26.4659C118.333 26.5341 118.206 26.5682 118.064 26.5682ZM125.203 17.7727V26.5H124.147V17.7727H125.203ZM129.828 29.0909C129.342 29.0909 128.925 29.0284 128.575 28.9034C128.226 28.7812 127.935 28.6193 127.702 28.4176C127.472 28.2188 127.288 28.0057 127.152 27.7784L127.953 27.2159C128.044 27.3352 128.159 27.4716 128.298 27.625C128.438 27.7812 128.628 27.9162 128.869 28.0298C129.114 28.1463 129.433 28.2045 129.828 28.2045C130.357 28.2045 130.793 28.0767 131.136 27.821C131.48 27.5653 131.652 27.1648 131.652 26.6193V25.2898H131.567C131.493 25.4091 131.388 25.5568 131.251 25.733C131.118 25.9062 130.925 26.0611 130.672 26.1974C130.422 26.331 130.084 26.3977 129.658 26.3977C129.129 26.3977 128.655 26.2727 128.234 26.0227C127.817 25.7727 127.486 25.4091 127.241 24.9318C127 24.4545 126.879 23.875 126.879 23.1932C126.879 22.5227 126.997 21.9389 127.233 21.4418C127.469 20.9418 127.797 20.5554 128.217 20.2827C128.638 20.0071 129.124 19.8693 129.675 19.8693C130.101 19.8693 130.439 19.9403 130.689 20.0824C130.942 20.2216 131.135 20.3807 131.268 20.5597C131.405 20.7358 131.51 20.8807 131.584 20.9943H131.686V19.9545H132.658V26.6875C132.658 27.25 132.53 27.7074 132.274 28.0597C132.021 28.4148 131.68 28.6747 131.251 28.8395C130.825 29.0071 130.351 29.0909 129.828 29.0909ZM129.794 25.4943C130.197 25.4943 130.538 25.402 130.817 25.2173C131.095 25.0327 131.307 24.767 131.452 24.4205C131.597 24.0739 131.669 23.6591 131.669 23.1761C131.669 22.7045 131.598 22.2884 131.456 21.9276C131.314 21.5668 131.104 21.2841 130.825 21.0795C130.547 20.875 130.203 20.7727 129.794 20.7727C129.368 20.7727 129.013 20.8807 128.729 21.0966C128.447 21.3125 128.236 21.6023 128.094 21.9659C127.955 22.3295 127.885 22.733 127.885 23.1761C127.885 23.6307 127.956 24.0327 128.098 24.3821C128.243 24.7287 128.456 25.0014 128.737 25.2003C129.021 25.3963 129.374 25.4943 129.794 25.4943ZM135.504 22.5625V26.5H134.499V19.9545H135.47V20.9773H135.555C135.709 20.6449 135.942 20.3778 136.254 20.1761C136.567 19.9716 136.97 19.8693 137.464 19.8693C137.908 19.8693 138.295 19.9602 138.628 20.142C138.96 20.321 139.219 20.5938 139.403 20.9602C139.588 21.3239 139.68 21.7841 139.68 22.3409V26.5H138.675V22.4091C138.675 21.8949 138.541 21.4943 138.274 21.2074C138.007 20.9176 137.641 20.7727 137.175 20.7727C136.854 20.7727 136.567 20.8423 136.314 20.9815C136.064 21.1207 135.866 21.3239 135.722 21.5909C135.577 21.858 135.504 22.1818 135.504 22.5625ZM141.518 26.5V19.9545H142.524V26.5H141.518ZM142.029 18.8636C141.833 18.8636 141.664 18.7969 141.522 18.6634C141.383 18.5298 141.314 18.3693 141.314 18.1818C141.314 17.9943 141.383 17.8338 141.522 17.7003C141.664 17.5668 141.833 17.5 142.029 17.5C142.225 17.5 142.393 17.5668 142.532 17.7003C142.674 17.8338 142.745 17.9943 142.745 18.1818C142.745 18.3693 142.674 18.5298 142.532 18.6634C142.393 18.7969 142.225 18.8636 142.029 18.8636ZM147.212 19.9545V20.8068H143.82V19.9545H147.212ZM144.809 18.3864H145.815V24.625C145.815 24.9091 145.856 25.1222 145.938 25.2642C146.023 25.4034 146.131 25.4972 146.262 25.5455C146.396 25.5909 146.536 25.6136 146.684 25.6136C146.795 25.6136 146.886 25.608 146.957 25.5966C147.028 25.5824 147.085 25.571 147.127 25.5625L147.332 26.4659C147.263 26.4915 147.168 26.517 147.046 26.5426C146.924 26.571 146.769 26.5852 146.582 26.5852C146.298 26.5852 146.019 26.5241 145.746 26.402C145.477 26.2798 145.252 26.0938 145.073 25.8438C144.897 25.5938 144.809 25.2784 144.809 24.8977V18.3864ZM151.399 26.6364C150.768 26.6364 150.224 26.4972 149.767 26.2188C149.312 25.9375 148.962 25.5455 148.714 25.0426C148.47 24.5369 148.348 23.9489 148.348 23.2784C148.348 22.608 148.47 22.017 148.714 21.5057C148.962 20.9915 149.305 20.5909 149.746 20.304C150.189 20.0142 150.706 19.8693 151.297 19.8693C151.638 19.8693 151.974 19.9261 152.307 20.0398C152.639 20.1534 152.942 20.3381 153.214 20.5938C153.487 20.8466 153.705 21.1818 153.866 21.5994C154.028 22.017 154.109 22.5312 154.109 23.142V23.5682H149.064V22.6989H153.087C153.087 22.3295 153.013 22 152.865 21.7102C152.72 21.4205 152.513 21.1918 152.243 21.0241C151.976 20.8565 151.661 20.7727 151.297 20.7727C150.896 20.7727 150.55 20.8722 150.257 21.071C149.967 21.267 149.744 21.5227 149.588 21.8381C149.432 22.1534 149.354 22.4915 149.354 22.8523V23.4318C149.354 23.9261 149.439 24.3452 149.609 24.6889C149.783 25.0298 150.023 25.2898 150.33 25.4688C150.636 25.6449 150.993 25.733 151.399 25.733C151.663 25.733 151.902 25.696 152.115 25.6222C152.331 25.5455 152.517 25.4318 152.673 25.2812C152.83 25.1278 152.95 24.9375 153.036 24.7102L154.007 24.983C153.905 25.3125 153.733 25.6023 153.491 25.8523C153.25 26.0994 152.952 26.2926 152.597 26.4318C152.241 26.5682 151.842 26.6364 151.399 26.6364ZM159.662 28.9545C159.491 28.9545 159.339 28.9403 159.206 28.9119C159.072 28.8864 158.98 28.8608 158.929 28.8352L159.185 27.9489C159.429 28.0114 159.645 28.0341 159.832 28.017C160.02 28 160.186 27.9162 160.331 27.7656C160.479 27.6179 160.614 27.3778 160.736 27.0455L160.923 26.5341L158.503 19.9545H159.594L161.401 25.1705H161.469L163.276 19.9545H164.366L161.588 27.4545C161.463 27.7926 161.308 28.0724 161.124 28.294C160.939 28.5185 160.724 28.6847 160.48 28.7926C160.239 28.9006 159.966 28.9545 159.662 28.9545ZM168.119 26.6364C167.528 26.6364 167.009 26.4957 166.563 26.2145C166.12 25.9332 165.773 25.5398 165.523 25.0341C165.276 24.5284 165.153 23.9375 165.153 23.2614C165.153 22.5795 165.276 21.9844 165.523 21.4759C165.773 20.9673 166.12 20.5724 166.563 20.2912C167.009 20.0099 167.528 19.8693 168.119 19.8693C168.71 19.8693 169.227 20.0099 169.67 20.2912C170.116 20.5724 170.462 20.9673 170.71 21.4759C170.96 21.9844 171.085 22.5795 171.085 23.2614C171.085 23.9375 170.96 24.5284 170.71 25.0341C170.462 25.5398 170.116 25.9332 169.67 26.2145C169.227 26.4957 168.71 26.6364 168.119 26.6364ZM168.119 25.733C168.567 25.733 168.937 25.6179 169.227 25.3878C169.516 25.1577 169.731 24.8551 169.87 24.4801C170.009 24.1051 170.079 23.6989 170.079 23.2614C170.079 22.8239 170.009 22.4162 169.87 22.0384C169.731 21.6605 169.516 21.3551 169.227 21.1222C168.937 20.8892 168.567 20.7727 168.119 20.7727C167.67 20.7727 167.3 20.8892 167.011 21.1222C166.721 21.3551 166.506 21.6605 166.367 22.0384C166.228 22.4162 166.158 22.8239 166.158 23.2614C166.158 23.6989 166.228 24.1051 166.367 24.4801C166.506 24.8551 166.721 25.1577 167.011 25.3878C167.3 25.6179 167.67 25.733 168.119 25.733ZM176.745 23.8239V19.9545H177.75V26.5H176.745V25.392H176.676C176.523 25.7244 176.284 26.0071 175.961 26.2401C175.637 26.4702 175.228 26.5852 174.733 26.5852C174.324 26.5852 173.961 26.4957 173.642 26.3168C173.324 26.1349 173.074 25.8622 172.892 25.4986C172.711 25.1321 172.62 24.6705 172.62 24.1136V19.9545H173.625V24.0455C173.625 24.5227 173.759 24.9034 174.026 25.1875C174.296 25.4716 174.64 25.6136 175.057 25.6136C175.307 25.6136 175.561 25.5497 175.82 25.4219C176.081 25.294 176.3 25.098 176.476 24.8338C176.655 24.5696 176.745 24.233 176.745 23.8239ZM179.592 26.5V19.9545H180.564V20.9432H180.632C180.751 20.6193 180.967 20.3565 181.28 20.1548C181.592 19.9531 181.945 19.8523 182.337 19.8523C182.411 19.8523 182.503 19.8537 182.614 19.8565C182.724 19.8594 182.808 19.8636 182.865 19.8693V20.892C182.831 20.8835 182.753 20.8707 182.631 20.8537C182.511 20.8338 182.385 20.8239 182.251 20.8239C181.933 20.8239 181.649 20.8906 181.399 21.0241C181.152 21.1548 180.956 21.3366 180.811 21.5696C180.669 21.7997 180.598 22.0625 180.598 22.358V26.5H179.592ZM192.784 19.9545L190.364 26.5H189.341L186.921 19.9545H188.012L189.819 25.1705H189.887L191.694 19.9545H192.784ZM194.112 26.5V19.9545H195.118V26.5H194.112ZM194.623 18.8636C194.427 18.8636 194.258 18.7969 194.116 18.6634C193.977 18.5298 193.907 18.3693 193.907 18.1818C193.907 17.9943 193.977 17.8338 194.116 17.7003C194.258 17.5668 194.427 17.5 194.623 17.5C194.819 17.5 194.987 17.5668 195.126 17.7003C195.268 17.8338 195.339 17.9943 195.339 18.1818C195.339 18.3693 195.268 18.5298 195.126 18.6634C194.987 18.7969 194.819 18.8636 194.623 18.8636ZM201.596 21.4205L200.692 21.6761C200.636 21.5256 200.552 21.3793 200.441 21.2372C200.333 21.0923 200.185 20.973 199.998 20.8793C199.81 20.7855 199.57 20.7386 199.278 20.7386C198.877 20.7386 198.543 20.831 198.276 21.0156C198.012 21.1974 197.88 21.429 197.88 21.7102C197.88 21.9602 197.971 22.1577 198.153 22.3026C198.335 22.4474 198.619 22.5682 199.005 22.6648L199.977 22.9034C200.562 23.0455 200.998 23.2628 201.285 23.5554C201.572 23.8452 201.715 24.2187 201.715 24.6761C201.715 25.0511 201.607 25.3864 201.391 25.6818C201.178 25.9773 200.88 26.2102 200.496 26.3807C200.113 26.5511 199.667 26.6364 199.158 26.6364C198.491 26.6364 197.938 26.4915 197.501 26.2017C197.063 25.9119 196.786 25.4886 196.67 24.9318L197.624 24.6932C197.715 25.0455 197.887 25.3097 198.14 25.4858C198.396 25.6619 198.729 25.75 199.141 25.75C199.61 25.75 199.982 25.6506 200.258 25.4517C200.536 25.25 200.675 25.0085 200.675 24.7273C200.675 24.5 200.596 24.3097 200.437 24.1562C200.278 24 200.033 23.8835 199.704 23.8068L198.613 23.5511C198.013 23.4091 197.573 23.1889 197.292 22.8906C197.013 22.5895 196.874 22.2131 196.874 21.7614C196.874 21.392 196.978 21.0653 197.185 20.7812C197.396 20.4972 197.681 20.2741 198.042 20.1122C198.406 19.9503 198.817 19.8693 199.278 19.8693C199.925 19.8693 200.434 20.0114 200.803 20.2955C201.175 20.5795 201.44 20.9545 201.596 21.4205ZM203.229 26.5V19.9545H204.235V26.5H203.229ZM203.74 18.8636C203.544 18.8636 203.375 18.7969 203.233 18.6634C203.094 18.5298 203.025 18.3693 203.025 18.1818C203.025 17.9943 203.094 17.8338 203.233 17.7003C203.375 17.5668 203.544 17.5 203.74 17.5C203.936 17.5 204.104 17.5668 204.243 17.7003C204.385 17.8338 204.456 17.9943 204.456 18.1818C204.456 18.3693 204.385 18.5298 204.243 18.6634C204.104 18.7969 203.936 18.8636 203.74 18.8636ZM208.736 26.6364C208.145 26.6364 207.626 26.4957 207.18 26.2145C206.737 25.9332 206.391 25.5398 206.141 25.0341C205.893 24.5284 205.77 23.9375 205.77 23.2614C205.77 22.5795 205.893 21.9844 206.141 21.4759C206.391 20.9673 206.737 20.5724 207.18 20.2912C207.626 20.0099 208.145 19.8693 208.736 19.8693C209.327 19.8693 209.844 20.0099 210.287 20.2912C210.733 20.5724 211.08 20.9673 211.327 21.4759C211.577 21.9844 211.702 22.5795 211.702 23.2614C211.702 23.9375 211.577 24.5284 211.327 25.0341C211.08 25.5398 210.733 25.9332 210.287 26.2145C209.844 26.4957 209.327 26.6364 208.736 26.6364ZM208.736 25.733C209.185 25.733 209.554 25.6179 209.844 25.3878C210.134 25.1577 210.348 24.8551 210.487 24.4801C210.626 24.1051 210.696 23.6989 210.696 23.2614C210.696 22.8239 210.626 22.4162 210.487 22.0384C210.348 21.6605 210.134 21.3551 209.844 21.1222C209.554 20.8892 209.185 20.7727 208.736 20.7727C208.287 20.7727 207.918 20.8892 207.628 21.1222C207.338 21.3551 207.124 21.6605 206.984 22.0384C206.845 22.4162 206.776 22.8239 206.776 23.2614C206.776 23.6989 206.845 24.1051 206.984 24.4801C207.124 24.8551 207.338 25.1577 207.628 25.3878C207.918 25.6179 208.287 25.733 208.736 25.733ZM214.243 22.5625V26.5H213.237V19.9545H214.208V20.9773H214.294C214.447 20.6449 214.68 20.3778 214.993 20.1761C215.305 19.9716 215.708 19.8693 216.203 19.8693C216.646 19.8693 217.034 19.9602 217.366 20.142C217.699 20.321 217.957 20.5938 218.142 20.9602C218.326 21.3239 218.419 21.7841 218.419 22.3409V26.5H217.413V22.4091C217.413 21.8949 217.279 21.4943 217.012 21.2074C216.745 20.9176 216.379 20.7727 215.913 20.7727C215.592 20.7727 215.305 20.8423 215.052 20.9815C214.802 21.1207 214.605 21.3239 214.46 21.5909C214.315 21.858 214.243 22.1818 214.243 22.5625Z" fill="white"/>
<rect y="55" width="236" height="44" rx="8" fill="black"/>
<rect x="14.5" y="64" width="26" height="26" rx="13" fill="#004BE0"/>
<path d="M22.5 75.3335C22.5 72.5721 24.7386 70.3335 27.5 70.3335C30.2614 70.3335 32.5 72.5721 32.5 75.3335C32.5 76.8139 31.8566 78.1441 30.8341 79.0596C30.087 79.7286 29.7134 80.0632 29.6128 80.1873C29.2883 80.5878 29.2739 80.6199 29.1921 81.1288C29.1667 81.2866 29.1667 81.5245 29.1667 82.0002C29.1667 82.6232 29.1667 82.9348 29.0327 83.1668C28.9449 83.3188 28.8187 83.4451 28.6667 83.5328C28.4346 83.6668 28.1231 83.6668 27.5 83.6668C26.8769 83.6668 26.5654 83.6668 26.3333 83.5328C26.1813 83.4451 26.0551 83.3188 25.9673 83.1668C25.8333 82.9348 25.8333 82.6232 25.8333 82.0002C25.8333 81.5245 25.8333 81.2866 25.8079 81.1288C25.7261 80.6199 25.7117 80.5878 25.3872 80.1873C25.2866 80.0632 24.913 79.7286 24.1658 79.0596C23.1434 78.1441 22.5 76.8139 22.5 75.3335Z" stroke="white"/>
<path opacity="0.5" d="M29.1673 82H25.834" stroke="white"/>
<path opacity="0.5" d="M28.0243 74.6665L26.5957 76.6665H28.5957L27.1672 78.6665" stroke="white" stroke-linecap="round" stroke-linejoin="round"/>
<path d="M49.5568 81.5V72.7727H54.7898V73.7102H50.6136V76.6591H54.3977V77.5966H50.6136V81.5H49.5568ZM56.4634 81.5V74.9545H57.4691V81.5H56.4634ZM56.9748 73.8636C56.7788 73.8636 56.6097 73.7969 56.4677 73.6634C56.3285 73.5298 56.2589 73.3693 56.2589 73.1818C56.2589 72.9943 56.3285 72.8338 56.4677 72.7003C56.6097 72.5668 56.7788 72.5 56.9748 72.5C57.1708 72.5 57.3384 72.5668 57.4776 72.7003C57.6197 72.8338 57.6907 72.9943 57.6907 73.1818C57.6907 73.3693 57.6197 73.5298 57.4776 73.6634C57.3384 73.7969 57.1708 73.8636 56.9748 73.8636ZM60.3168 77.5625V81.5H59.3111V74.9545H60.2827V75.9773H60.3679C60.5213 75.6449 60.7543 75.3778 61.0668 75.1761C61.3793 74.9716 61.7827 74.8693 62.277 74.8693C62.7202 74.8693 63.108 74.9602 63.4403 75.142C63.7727 75.321 64.0313 75.5938 64.2159 75.9602C64.4006 76.3239 64.4929 76.7841 64.4929 77.3409V81.5H63.4872V77.4091C63.4872 76.8949 63.3537 76.4943 63.0866 76.2074C62.8196 75.9176 62.4531 75.7727 61.9872 75.7727C61.6662 75.7727 61.3793 75.8423 61.1264 75.9815C60.8764 76.1207 60.679 76.3239 60.5341 76.5909C60.3892 76.858 60.3168 77.1818 60.3168 77.5625ZM68.8022 81.6364C68.2567 81.6364 67.7752 81.4986 67.3576 81.223C66.94 80.9446 66.6133 80.5526 66.3775 80.0469C66.1417 79.5384 66.0238 78.9375 66.0238 78.2443C66.0238 77.5568 66.1417 76.9602 66.3775 76.4545C66.6133 75.9489 66.9414 75.5582 67.3619 75.2827C67.7823 75.0071 68.2681 74.8693 68.8192 74.8693C69.2454 74.8693 69.582 74.9403 69.8292 75.0824C70.0792 75.2216 70.2695 75.3807 70.4002 75.5597C70.5337 75.7358 70.6374 75.8807 70.7113 75.9943H70.7965V72.7727H71.8022V81.5H70.8306V80.4943H70.7113C70.6374 80.6136 70.5323 80.7642 70.396 80.946C70.2596 81.125 70.065 81.2855 69.8121 81.4276C69.5593 81.5668 69.2227 81.6364 68.8022 81.6364ZM68.9386 80.733C69.342 80.733 69.6829 80.6278 69.9613 80.4176C70.2397 80.2045 70.4513 79.9105 70.5962 79.5355C70.7411 79.1577 70.8136 78.7216 70.8136 78.2273C70.8136 77.7386 70.7425 77.3111 70.6005 76.9446C70.4585 76.5753 70.2482 76.2884 69.9698 76.0838C69.6914 75.8764 69.3477 75.7727 68.9386 75.7727C68.5124 75.7727 68.1573 75.8821 67.8732 76.1009C67.592 76.3168 67.3803 76.6108 67.2383 76.983C67.0991 77.3523 67.0295 77.767 67.0295 78.2273C67.0295 78.6932 67.1005 79.1165 67.2425 79.4972C67.3874 79.875 67.6005 80.1761 67.8817 80.4006C68.1658 80.6222 68.5181 80.733 68.9386 80.733ZM77.1587 81.5V74.9545H78.1644V81.5H77.1587ZM77.6701 73.8636C77.4741 73.8636 77.305 73.7969 77.163 73.6634C77.0238 73.5298 76.9542 73.3693 76.9542 73.1818C76.9542 72.9943 77.0238 72.8338 77.163 72.7003C77.305 72.5668 77.4741 72.5 77.6701 72.5C77.8661 72.5 78.0337 72.5668 78.1729 72.7003C78.315 72.8338 78.386 72.9943 78.386 73.1818C78.386 73.3693 78.315 73.5298 78.1729 73.6634C78.0337 73.7969 77.8661 73.8636 77.6701 73.8636ZM81.0121 77.5625V81.5H80.0064V74.9545H80.978V75.9773H81.0632C81.2166 75.6449 81.4496 75.3778 81.7621 75.1761C82.0746 74.9716 82.478 74.8693 82.9723 74.8693C83.4155 74.8693 83.8033 74.9602 84.1357 75.142C84.468 75.321 84.7266 75.5938 84.9112 75.9602C85.0959 76.3239 85.1882 76.7841 85.1882 77.3409V81.5H84.1825V77.4091C84.1825 76.8949 84.049 76.4943 83.782 76.2074C83.5149 75.9176 83.1484 75.7727 82.6825 75.7727C82.3615 75.7727 82.0746 75.8423 81.8217 75.9815C81.5717 76.1207 81.3743 76.3239 81.2294 76.5909C81.0845 76.858 81.0121 77.1818 81.0121 77.5625ZM91.6623 76.4205L90.7589 76.6761C90.7021 76.5256 90.6183 76.3793 90.5075 76.2372C90.3995 76.0923 90.2518 75.973 90.0643 75.8793C89.8768 75.7855 89.6367 75.7386 89.3441 75.7386C88.9435 75.7386 88.6097 75.831 88.3427 76.0156C88.0785 76.1974 87.9464 76.429 87.9464 76.7102C87.9464 76.9602 88.0373 77.1577 88.2191 77.3026C88.4009 77.4474 88.685 77.5682 89.0714 77.6648L90.043 77.9034C90.6282 78.0455 91.0643 78.2628 91.3512 78.5554C91.6381 78.8452 91.7816 79.2187 91.7816 79.6761C91.7816 80.0511 91.6737 80.3864 91.4577 80.6818C91.2447 80.9773 90.9464 81.2102 90.5629 81.3807C90.1793 81.5511 89.7333 81.6364 89.2248 81.6364C88.5572 81.6364 88.0046 81.4915 87.5671 81.2017C87.1296 80.9119 86.8526 80.4886 86.7362 79.9318L87.6907 79.6932C87.7816 80.0455 87.9535 80.3097 88.2063 80.4858C88.462 80.6619 88.7958 80.75 89.2077 80.75C89.6765 80.75 90.0487 80.6506 90.3242 80.4517C90.6026 80.25 90.7418 80.0085 90.7418 79.7273C90.7418 79.5 90.6623 79.3097 90.5032 79.1562C90.3441 79 90.0998 78.8835 89.7702 78.8068L88.6793 78.5511C88.0799 78.4091 87.6396 78.1889 87.3583 77.8906C87.0799 77.5895 86.9407 77.2131 86.9407 76.7614C86.9407 76.392 87.0444 76.0653 87.2518 75.7812C87.462 75.4972 87.7475 75.2741 88.1083 75.1122C88.4719 74.9503 88.8839 74.8693 89.3441 74.8693C89.9918 74.8693 90.5004 75.0114 90.8697 75.2955C91.2418 75.5795 91.506 75.9545 91.6623 76.4205ZM93.2955 83.9545V74.9545H94.267V75.9943H94.3864C94.4602 75.8807 94.5625 75.7358 94.6932 75.5597C94.8267 75.3807 95.017 75.2216 95.2642 75.0824C95.5142 74.9403 95.8523 74.8693 96.2784 74.8693C96.8295 74.8693 97.3153 75.0071 97.7358 75.2827C98.1563 75.5582 98.4844 75.9489 98.7202 76.4545C98.956 76.9602 99.0739 77.5568 99.0739 78.2443C99.0739 78.9375 98.956 79.5384 98.7202 80.0469C98.4844 80.5526 98.1577 80.9446 97.7401 81.223C97.3224 81.4986 96.8409 81.6364 96.2955 81.6364C95.875 81.6364 95.5384 81.5668 95.2855 81.4276C95.0327 81.2855 94.8381 81.125 94.7017 80.946C94.5653 80.7642 94.4602 80.6136 94.3864 80.4943H94.3011V83.9545H93.2955ZM94.2841 78.2273C94.2841 78.7216 94.3565 79.1577 94.5014 79.5355C94.6463 79.9105 94.858 80.2045 95.1364 80.4176C95.4148 80.6278 95.7557 80.733 96.1591 80.733C96.5795 80.733 96.9304 80.6222 97.2116 80.4006C97.4957 80.1761 97.7088 79.875 97.8509 79.4972C97.9957 79.1165 98.0682 78.6932 98.0682 78.2273C98.0682 77.767 97.9972 77.3523 97.8551 76.983C97.7159 76.6108 97.5043 76.3168 97.2202 76.1009C96.9389 75.8821 96.5852 75.7727 96.1591 75.7727C95.75 75.7727 95.4063 75.8764 95.1278 76.0838C94.8494 76.2884 94.6392 76.5753 94.4972 76.9446C94.3551 77.3111 94.2841 77.7386 94.2841 78.2273ZM100.608 81.5V74.9545H101.614V81.5H100.608ZM101.119 73.8636C100.923 73.8636 100.754 73.7969 100.612 73.6634C100.473 73.5298 100.403 73.3693 100.403 73.1818C100.403 72.9943 100.473 72.8338 100.612 72.7003C100.754 72.5668 100.923 72.5 101.119 72.5C101.315 72.5 101.483 72.5668 101.622 72.7003C101.764 72.8338 101.835 72.9943 101.835 73.1818C101.835 73.3693 101.764 73.5298 101.622 73.6634C101.483 73.7969 101.315 73.8636 101.119 73.8636ZM103.456 81.5V74.9545H104.427V75.9432H104.495C104.615 75.6193 104.831 75.3565 105.143 75.1548C105.456 74.9531 105.808 74.8523 106.2 74.8523C106.274 74.8523 106.366 74.8537 106.477 74.8565C106.588 74.8594 106.672 74.8636 106.728 74.8693V75.892C106.694 75.8835 106.616 75.8707 106.494 75.8537C106.375 75.8338 106.248 75.8239 106.115 75.8239C105.797 75.8239 105.512 75.8906 105.262 76.0241C105.015 76.1548 104.819 76.3366 104.674 76.5696C104.532 76.7997 104.461 77.0625 104.461 77.358V81.5H103.456ZM109.847 81.6534C109.432 81.6534 109.055 81.5753 108.717 81.419C108.379 81.2599 108.111 81.0312 107.912 80.733C107.713 80.4318 107.614 80.0682 107.614 79.642C107.614 79.267 107.688 78.9631 107.835 78.7301C107.983 78.4943 108.18 78.3097 108.428 78.1761C108.675 78.0426 108.947 77.9432 109.246 77.8778C109.547 77.8097 109.849 77.7557 110.153 77.7159C110.551 77.6648 110.874 77.6264 111.121 77.6009C111.371 77.5724 111.553 77.5256 111.666 77.4602C111.783 77.3949 111.841 77.2812 111.841 77.1193V77.0852C111.841 76.6648 111.726 76.3381 111.496 76.1051C111.268 75.8722 110.923 75.7557 110.46 75.7557C109.98 75.7557 109.604 75.8608 109.331 76.071C109.058 76.2812 108.866 76.5057 108.756 76.7443L107.801 76.4034C107.972 76.0057 108.199 75.696 108.483 75.4744C108.77 75.25 109.082 75.0937 109.42 75.0057C109.761 74.9148 110.097 74.8693 110.426 74.8693C110.636 74.8693 110.878 74.8949 111.151 74.946C111.426 74.9943 111.692 75.0952 111.947 75.2486C112.206 75.402 112.42 75.6335 112.591 75.9432C112.761 76.2528 112.847 76.6676 112.847 77.1875V81.5H111.841V80.6136H111.79C111.722 80.7557 111.608 80.9077 111.449 81.0696C111.29 81.2315 111.078 81.3693 110.814 81.483C110.55 81.5966 110.227 81.6534 109.847 81.6534ZM110 80.75C110.398 80.75 110.733 80.6719 111.006 80.5156C111.281 80.3594 111.489 80.1577 111.628 79.9105C111.77 79.6634 111.841 79.4034 111.841 79.1307V78.2102C111.798 78.2614 111.705 78.3082 111.56 78.3509C111.418 78.3906 111.253 78.4261 111.065 78.4574C110.881 78.4858 110.7 78.5114 110.524 78.5341C110.351 78.554 110.21 78.571 110.102 78.5852C109.841 78.6193 109.597 78.6747 109.369 78.7514C109.145 78.8253 108.963 78.9375 108.824 79.0881C108.688 79.2358 108.619 79.4375 108.619 79.6932C108.619 80.0426 108.749 80.3068 109.007 80.4858C109.268 80.6619 109.599 80.75 110 80.75ZM117.529 74.9545V75.8068H114.137V74.9545H117.529ZM115.125 73.3864H116.131V79.625C116.131 79.9091 116.172 80.1222 116.255 80.2642C116.34 80.4034 116.448 80.4972 116.578 80.5455C116.712 80.5909 116.853 80.6136 117 80.6136C117.111 80.6136 117.202 80.608 117.273 80.5966C117.344 80.5824 117.401 80.571 117.444 80.5625L117.648 81.4659C117.58 81.4915 117.485 81.517 117.363 81.5426C117.24 81.571 117.086 81.5852 116.898 81.5852C116.614 81.5852 116.336 81.5241 116.063 81.402C115.793 81.2798 115.569 81.0938 115.39 80.8438C115.213 80.5938 115.125 80.2784 115.125 79.8977V73.3864ZM119.042 81.5V74.9545H120.047V81.5H119.042ZM119.553 73.8636C119.357 73.8636 119.188 73.7969 119.046 73.6634C118.907 73.5298 118.837 73.3693 118.837 73.1818C118.837 72.9943 118.907 72.8338 119.046 72.7003C119.188 72.5668 119.357 72.5 119.553 72.5C119.749 72.5 119.917 72.5668 120.056 72.7003C120.198 72.8338 120.269 72.9943 120.269 73.1818C120.269 73.3693 120.198 73.5298 120.056 73.6634C119.917 73.7969 119.749 73.8636 119.553 73.8636ZM124.548 81.6364C123.957 81.6364 123.439 81.4957 122.993 81.2145C122.55 80.9332 122.203 80.5398 121.953 80.0341C121.706 79.5284 121.582 78.9375 121.582 78.2614C121.582 77.5795 121.706 76.9844 121.953 76.4759C122.203 75.9673 122.55 75.5724 122.993 75.2912C123.439 75.0099 123.957 74.8693 124.548 74.8693C125.139 74.8693 125.656 75.0099 126.099 75.2912C126.545 75.5724 126.892 75.9673 127.139 76.4759C127.389 76.9844 127.514 77.5795 127.514 78.2614C127.514 78.9375 127.389 79.5284 127.139 80.0341C126.892 80.5398 126.545 80.9332 126.099 81.2145C125.656 81.4957 125.139 81.6364 124.548 81.6364ZM124.548 80.733C124.997 80.733 125.366 80.6179 125.656 80.3878C125.946 80.1577 126.161 79.8551 126.3 79.4801C126.439 79.1051 126.509 78.6989 126.509 78.2614C126.509 77.8239 126.439 77.4162 126.3 77.0384C126.161 76.6605 125.946 76.3551 125.656 76.1222C125.366 75.8892 124.997 75.7727 124.548 75.7727C124.099 75.7727 123.73 75.8892 123.44 76.1222C123.151 76.3551 122.936 76.6605 122.797 77.0384C122.658 77.4162 122.588 77.8239 122.588 78.2614C122.588 78.6989 122.658 79.1051 122.797 79.4801C122.936 79.8551 123.151 80.1577 123.44 80.3878C123.73 80.6179 124.099 80.733 124.548 80.733ZM130.055 77.5625V81.5H129.049V74.9545H130.021V75.9773H130.106C130.26 75.6449 130.493 75.3778 130.805 75.1761C131.118 74.9716 131.521 74.8693 132.015 74.8693C132.458 74.8693 132.846 74.9602 133.179 75.142C133.511 75.321 133.77 75.5938 133.954 75.9602C134.139 76.3239 134.231 76.7841 134.231 77.3409V81.5H133.225V77.4091C133.225 76.8949 133.092 76.4943 132.825 76.2074C132.558 75.9176 132.191 75.7727 131.725 75.7727C131.404 75.7727 131.118 75.8423 130.865 75.9815C130.615 76.1207 130.417 76.3239 130.272 76.5909C130.127 76.858 130.055 77.1818 130.055 77.5625ZM136.802 81.5682C136.592 81.5682 136.411 81.4929 136.261 81.3423C136.11 81.1918 136.035 81.0114 136.035 80.8011C136.035 80.5909 136.11 80.4105 136.261 80.2599C136.411 80.1094 136.592 80.0341 136.802 80.0341C137.012 80.0341 137.192 80.1094 137.343 80.2599C137.494 80.4105 137.569 80.5909 137.569 80.8011C137.569 80.9403 137.533 81.0682 137.462 81.1847C137.394 81.3011 137.302 81.3949 137.185 81.4659C137.072 81.5341 136.944 81.5682 136.802 81.5682ZM142.885 81.5V72.7727H145.936C146.544 72.7727 147.045 72.8778 147.44 73.0881C147.835 73.2955 148.129 73.5753 148.322 73.9276C148.516 74.277 148.612 74.6648 148.612 75.0909C148.612 75.4659 148.545 75.7756 148.412 76.0199C148.281 76.2642 148.108 76.4574 147.892 76.5994C147.679 76.7415 147.447 76.8466 147.197 76.9148V77C147.464 77.017 147.733 77.1108 148.003 77.2812C148.273 77.4517 148.499 77.696 148.68 78.0142C148.862 78.3324 148.953 78.7216 148.953 79.1818C148.953 79.6193 148.854 80.0128 148.655 80.3622C148.456 80.7116 148.142 80.9886 147.713 81.1932C147.284 81.3977 146.726 81.5 146.038 81.5H142.885ZM143.942 80.5625H146.038C146.729 80.5625 147.219 80.429 147.509 80.1619C147.801 79.892 147.947 79.5653 147.947 79.1818C147.947 78.8864 147.872 78.6136 147.722 78.3636C147.571 78.1108 147.357 77.9091 147.078 77.7585C146.8 77.6051 146.47 77.5284 146.089 77.5284H143.942V80.5625ZM143.942 76.608H145.902C146.22 76.608 146.507 76.5455 146.763 76.4205C147.021 76.2955 147.226 76.1193 147.376 75.892C147.53 75.6648 147.607 75.3977 147.607 75.0909C147.607 74.7074 147.473 74.3821 147.206 74.1151C146.939 73.8452 146.516 73.7102 145.936 73.7102H143.942V76.608ZM154.678 78.8239V74.9545H155.684V81.5H154.678V80.392H154.61C154.457 80.7244 154.218 81.0071 153.894 81.2401C153.57 81.4702 153.161 81.5852 152.667 81.5852C152.258 81.5852 151.894 81.4957 151.576 81.3168C151.258 81.1349 151.008 80.8622 150.826 80.4986C150.644 80.1321 150.553 79.6705 150.553 79.1136V74.9545H151.559V79.0455C151.559 79.5227 151.692 79.9034 151.96 80.1875C152.229 80.4716 152.573 80.6136 152.991 80.6136C153.241 80.6136 153.495 80.5497 153.754 80.4219C154.015 80.294 154.234 80.098 154.41 79.8338C154.589 79.5696 154.678 79.233 154.678 78.8239ZM157.526 81.5V74.9545H158.532V81.5H157.526ZM158.037 73.8636C157.841 73.8636 157.672 73.7969 157.53 73.6634C157.391 73.5298 157.321 73.3693 157.321 73.1818C157.321 72.9943 157.391 72.8338 157.53 72.7003C157.672 72.5668 157.841 72.5 158.037 72.5C158.233 72.5 158.401 72.5668 158.54 72.7003C158.682 72.8338 158.753 72.9943 158.753 73.1818C158.753 73.3693 158.682 73.5298 158.54 73.6634C158.401 73.7969 158.233 73.8636 158.037 73.8636ZM161.379 72.7727V81.5H160.374V72.7727H161.379ZM165.693 81.6364C165.147 81.6364 164.666 81.4986 164.248 81.223C163.831 80.9446 163.504 80.5526 163.268 80.0469C163.032 79.5384 162.914 78.9375 162.914 78.2443C162.914 77.5568 163.032 76.9602 163.268 76.4545C163.504 75.9489 163.832 75.5582 164.252 75.2827C164.673 75.0071 165.159 74.8693 165.71 74.8693C166.136 74.8693 166.473 74.9403 166.72 75.0824C166.97 75.2216 167.16 75.3807 167.291 75.5597C167.424 75.7358 167.528 75.8807 167.602 75.9943H167.687V72.7727H168.693V81.5H167.721V80.4943H167.602C167.528 80.6136 167.423 80.7642 167.287 80.946C167.15 81.125 166.956 81.2855 166.703 81.4276C166.45 81.5668 166.113 81.6364 165.693 81.6364ZM165.829 80.733C166.233 80.733 166.574 80.6278 166.852 80.4176C167.13 80.2045 167.342 79.9105 167.487 79.5355C167.632 79.1577 167.704 78.7216 167.704 78.2273C167.704 77.7386 167.633 77.3111 167.491 76.9446C167.349 76.5753 167.139 76.2884 166.86 76.0838C166.582 75.8764 166.238 75.7727 165.829 75.7727C165.403 75.7727 165.048 75.8821 164.764 76.1009C164.483 76.3168 164.271 76.6108 164.129 76.983C163.99 77.3523 163.92 77.767 163.92 78.2273C163.92 78.6932 163.991 79.1165 164.133 79.4972C164.278 79.875 164.491 80.1761 164.772 80.4006C165.056 80.6222 165.409 80.733 165.829 80.733ZM175.975 81.6534C175.561 81.6534 175.184 81.5753 174.846 81.419C174.508 81.2599 174.24 81.0312 174.041 80.733C173.842 80.4318 173.743 80.0682 173.743 79.642C173.743 79.267 173.816 78.9631 173.964 78.7301C174.112 78.4943 174.309 78.3097 174.556 78.1761C174.804 78.0426 175.076 77.9432 175.375 77.8778C175.676 77.8097 175.978 77.7557 176.282 77.7159C176.68 77.6648 177.002 77.6264 177.25 77.6009C177.5 77.5724 177.681 77.5256 177.795 77.4602C177.912 77.3949 177.97 77.2812 177.97 77.1193V77.0852C177.97 76.6648 177.855 76.3381 177.625 76.1051C177.397 75.8722 177.052 75.7557 176.589 75.7557C176.109 75.7557 175.733 75.8608 175.46 76.071C175.187 76.2812 174.995 76.5057 174.885 76.7443L173.93 76.4034C174.1 76.0057 174.328 75.696 174.612 75.4744C174.899 75.25 175.211 75.0937 175.549 75.0057C175.89 74.9148 176.225 74.8693 176.555 74.8693C176.765 74.8693 177.007 74.8949 177.279 74.946C177.555 74.9943 177.821 75.0952 178.076 75.2486C178.335 75.402 178.549 75.6335 178.72 75.9432C178.89 76.2528 178.975 76.6676 178.975 77.1875V81.5H177.97V80.6136H177.919C177.85 80.7557 177.737 80.9077 177.578 81.0696C177.419 81.2315 177.207 81.3693 176.943 81.483C176.679 81.5966 176.356 81.6534 175.975 81.6534ZM176.129 80.75C176.527 80.75 176.862 80.6719 177.135 80.5156C177.41 80.3594 177.618 80.1577 177.757 79.9105C177.899 79.6634 177.97 79.4034 177.97 79.1307V78.2102C177.927 78.2614 177.833 78.3082 177.689 78.3509C177.547 78.3906 177.382 78.4261 177.194 78.4574C177.01 78.4858 176.829 78.5114 176.653 78.5341C176.48 78.554 176.339 78.571 176.231 78.5852C175.97 78.6193 175.725 78.6747 175.498 78.7514C175.274 78.8253 175.092 78.9375 174.953 79.0881C174.816 79.2358 174.748 79.4375 174.748 79.6932C174.748 80.0426 174.877 80.3068 175.136 80.4858C175.397 80.6619 175.728 80.75 176.129 80.75ZM180.811 81.5V74.9545H181.783V75.9773H181.868C182.004 75.6278 182.224 75.3565 182.528 75.1634C182.832 74.9673 183.197 74.8693 183.624 74.8693C184.055 74.8693 184.415 74.9673 184.702 75.1634C184.991 75.3565 185.217 75.6278 185.379 75.9773H185.447C185.615 75.6392 185.866 75.3707 186.202 75.1719C186.537 74.9702 186.939 74.8693 187.408 74.8693C187.993 74.8693 188.472 75.0526 188.844 75.419C189.216 75.7827 189.402 76.3494 189.402 77.1193V81.5H188.396V77.1193C188.396 76.6364 188.264 76.2912 188 76.0838C187.736 75.8764 187.425 75.7727 187.067 75.7727C186.607 75.7727 186.25 75.9119 185.997 76.1903C185.744 76.4659 185.618 76.8153 185.618 77.2386V81.5H184.595V77.017C184.595 76.6449 184.474 76.3452 184.233 76.1179C183.991 75.8878 183.68 75.7727 183.3 75.7727C183.038 75.7727 182.794 75.8423 182.567 75.9815C182.342 76.1207 182.161 76.3139 182.021 76.5611C181.885 76.8054 181.817 77.0881 181.817 77.4091V81.5H180.811ZM193.167 81.6534C192.752 81.6534 192.376 81.5753 192.038 81.419C191.7 81.2599 191.431 81.0312 191.232 80.733C191.033 80.4318 190.934 80.0682 190.934 79.642C190.934 79.267 191.008 78.9631 191.156 78.7301C191.303 78.4943 191.501 78.3097 191.748 78.1761C191.995 78.0426 192.268 77.9432 192.566 77.8778C192.867 77.8097 193.17 77.7557 193.474 77.7159C193.871 77.6648 194.194 77.6264 194.441 77.6009C194.691 77.5724 194.873 77.5256 194.987 77.4602C195.103 77.3949 195.161 77.2812 195.161 77.1193V77.0852C195.161 76.6648 195.046 76.3381 194.816 76.1051C194.589 75.8722 194.244 75.7557 193.781 75.7557C193.3 75.7557 192.924 75.8608 192.651 76.071C192.379 76.2812 192.187 76.5057 192.076 76.7443L191.121 76.4034C191.292 76.0057 191.519 75.696 191.803 75.4744C192.09 75.25 192.403 75.0937 192.741 75.0057C193.082 74.9148 193.417 74.8693 193.746 74.8693C193.957 74.8693 194.198 74.8949 194.471 74.946C194.746 74.9943 195.012 75.0952 195.268 75.2486C195.526 75.402 195.741 75.6335 195.911 75.9432C196.082 76.2528 196.167 76.6676 196.167 77.1875V81.5H195.161V80.6136H195.11C195.042 80.7557 194.928 80.9077 194.769 81.0696C194.61 81.2315 194.398 81.3693 194.134 81.483C193.87 81.5966 193.548 81.6534 193.167 81.6534ZM193.32 80.75C193.718 80.75 194.053 80.6719 194.326 80.5156C194.602 80.3594 194.809 80.1577 194.948 79.9105C195.09 79.6634 195.161 79.4034 195.161 79.1307V78.2102C195.119 78.2614 195.025 78.3082 194.88 78.3509C194.738 78.3906 194.573 78.4261 194.386 78.4574C194.201 78.4858 194.021 78.5114 193.844 78.5341C193.671 78.554 193.531 78.571 193.423 78.5852C193.161 78.6193 192.917 78.6747 192.69 78.7514C192.465 78.8253 192.283 78.9375 192.144 79.0881C192.008 79.2358 191.94 79.4375 191.94 79.6932C191.94 80.0426 192.069 80.3068 192.327 80.4858C192.589 80.6619 192.92 80.75 193.32 80.75ZM197.815 81.5V80.733L201.531 75.9602V75.892H197.934V74.9545H202.826V75.7557L199.213 80.4943V80.5625H202.946V81.5H197.815ZM204.495 81.5V74.9545H205.5V81.5H204.495ZM205.006 73.8636C204.81 73.8636 204.641 73.7969 204.499 73.6634C204.36 73.5298 204.29 73.3693 204.29 73.1818C204.29 72.9943 204.36 72.8338 204.499 72.7003C204.641 72.5668 204.81 72.5 205.006 72.5C205.202 72.5 205.37 72.5668 205.509 72.7003C205.651 72.8338 205.722 72.9943 205.722 73.1818C205.722 73.3693 205.651 73.5298 205.509 73.6634C205.37 73.7969 205.202 73.8636 205.006 73.8636ZM208.348 77.5625V81.5H207.342V74.9545H208.314V75.9773H208.399C208.553 75.6449 208.786 75.3778 209.098 75.1761C209.411 74.9716 209.814 74.8693 210.308 74.8693C210.751 74.8693 211.139 74.9602 211.472 75.142C211.804 75.321 212.063 75.5938 212.247 75.9602C212.432 76.3239 212.524 76.7841 212.524 77.3409V81.5H211.518V77.4091C211.518 76.8949 211.385 76.4943 211.118 76.2074C210.851 75.9176 210.484 75.7727 210.018 75.7727C209.697 75.7727 209.411 75.8423 209.158 75.9815C208.908 76.1207 208.71 76.3239 208.565 76.5909C208.42 76.858 208.348 77.1818 208.348 77.5625ZM217.004 84.0909C216.518 84.0909 216.1 84.0284 215.751 83.9034C215.402 83.7812 215.11 83.6193 214.877 83.4176C214.647 83.2188 214.464 83.0057 214.328 82.7784L215.129 82.2159C215.22 82.3352 215.335 82.4716 215.474 82.625C215.613 82.7812 215.804 82.9162 216.045 83.0298C216.289 83.1463 216.609 83.2045 217.004 83.2045C217.532 83.2045 217.968 83.0767 218.312 82.821C218.656 82.5653 218.828 82.1648 218.828 81.6193V80.2898H218.743C218.669 80.4091 218.564 80.5568 218.427 80.733C218.294 80.9062 218.1 81.0611 217.848 81.1974C217.598 81.331 217.26 81.3977 216.833 81.3977C216.305 81.3977 215.831 81.2727 215.41 81.0227C214.993 80.7727 214.662 80.4091 214.417 79.9318C214.176 79.4545 214.055 78.875 214.055 78.1932C214.055 77.5227 214.173 76.9389 214.409 76.4418C214.645 75.9418 214.973 75.5554 215.393 75.2827C215.814 75.0071 216.299 74.8693 216.85 74.8693C217.277 74.8693 217.615 74.9403 217.865 75.0824C218.118 75.2216 218.311 75.3807 218.444 75.5597C218.581 75.7358 218.686 75.8807 218.76 75.9943H218.862V74.9545H219.833V81.6875C219.833 82.25 219.706 82.7074 219.45 83.0597C219.197 83.4148 218.856 83.6747 218.427 83.8395C218.001 84.0071 217.527 84.0909 217.004 84.0909ZM216.97 80.4943C217.373 80.4943 217.714 80.402 217.993 80.2173C218.271 80.0327 218.483 79.767 218.627 79.4205C218.772 79.0739 218.845 78.6591 218.845 78.1761C218.845 77.7045 218.774 77.2884 218.632 76.9276C218.49 76.5668 218.279 76.2841 218.001 76.0795C217.723 75.875 217.379 75.7727 216.97 75.7727C216.544 75.7727 216.189 75.8807 215.904 76.0966C215.623 76.3125 215.412 76.6023 215.27 76.9659C215.13 77.3295 215.061 77.733 215.061 78.1761C215.061 78.6307 215.132 79.0327 215.274 79.3821C215.419 79.7287 215.632 80.0014 215.913 80.2003C216.197 80.3963 216.549 80.4943 216.97 80.4943Z" fill="white"/>
</svg>
