<svg width="120" height="36" viewBox="0 0 120 36" fill="none" xmlns="http://www.w3.org/2000/svg">
<path d="M25.75 35L23.65 28.7H9.7L7.6 35H0.15L12.4 -2.38419e-06H20.95L33.25 35H25.75ZM11.9 22.25H21.5L16.7 7.95L11.9 22.25ZM42.0543 17.1C42.0543 17.7667 42.4876 18.3167 43.3543 18.75C44.2543 19.15 45.3376 19.5167 46.6043 19.85C47.871 20.15 49.1376 20.55 50.4043 21.05C51.671 21.5167 52.7376 22.3167 53.6043 23.45C54.5043 24.5833 54.9543 26 54.9543 27.7C54.9543 30.2667 53.9876 32.25 52.0543 33.65C50.1543 35.0167 47.771 35.7 44.9043 35.7C39.771 35.7 36.271 33.7167 34.4043 29.75L40.0043 26.6C40.7376 28.7667 42.371 29.85 44.9043 29.85C47.2043 29.85 48.3543 29.1333 48.3543 27.7C48.3543 27.0333 47.9043 26.5 47.0043 26.1C46.1376 25.6667 45.071 25.2833 43.8043 24.95C42.5376 24.6167 41.271 24.2 40.0043 23.7C38.7376 23.2 37.6543 22.4167 36.7543 21.35C35.8876 20.25 35.4543 18.8833 35.4543 17.25C35.4543 14.7833 36.3543 12.85 38.1543 11.45C39.9876 10.0167 42.2543 9.3 44.9543 9.3C46.9876 9.3 48.8376 9.76667 50.5043 10.7C52.171 11.6 53.4876 12.9 54.4543 14.6L48.9543 17.6C48.1543 15.9 46.821 15.05 44.9543 15.05C44.121 15.05 43.421 15.2333 42.8543 15.6C42.321 15.9667 42.0543 16.4667 42.0543 17.1ZM72.6699 16.2H67.0199V26.6C67.0199 27.4667 67.2366 28.1 67.6699 28.5C68.1033 28.9 68.7366 29.1333 69.5699 29.2C70.4033 29.2333 71.4366 29.2167 72.6699 29.15V35C68.2366 35.5 65.1033 35.0833 63.2699 33.75C61.4699 32.4167 60.5699 30.0333 60.5699 26.6V16.2H56.2199V10H60.5699V4.95L67.0199 3V10H72.6699V16.2ZM84.0582 14.3C84.6582 12.7 85.6415 11.5 87.0082 10.7C88.4082 9.9 89.9582 9.5 91.6582 9.5V16.7C89.6915 16.4667 87.9249 16.8667 86.3582 17.9C84.8249 18.9333 84.0582 20.65 84.0582 23.05V35H77.6082V10H84.0582V14.3ZM113.503 10H119.953V35H113.503V32.05C111.569 34.4833 108.853 35.7 105.353 35.7C102.019 35.7 99.1527 34.4333 96.7527 31.9C94.3861 29.3333 93.2027 26.2 93.2027 22.5C93.2027 18.8 94.3861 15.6833 96.7527 13.15C99.1527 10.5833 102.019 9.3 105.353 9.3C108.853 9.3 111.569 10.5167 113.503 12.95V10ZM101.603 27.6C102.903 28.9 104.553 29.55 106.553 29.55C108.553 29.55 110.203 28.9 111.503 27.6C112.836 26.2667 113.503 24.5667 113.503 22.5C113.503 20.4333 112.836 18.75 111.503 17.45C110.203 16.1167 108.553 15.45 106.553 15.45C104.553 15.45 102.903 16.1167 101.603 17.45C100.303 18.75 99.6527 20.4333 99.6527 22.5C99.6527 24.5667 100.303 26.2667 101.603 27.6Z" fill="url(#paint0_linear_13_171)"/>
<defs>
<linearGradient id="paint0_linear_13_171" x1="-4.57438" y1="21" x2="123" y2="21" gradientUnits="userSpaceOnUse">
<stop stop-color="#3B82F6"/>
<stop offset="1" stop-color="#4F46E5"/>
</linearGradient>
</defs>
</svg>
