<svg width="186" height="186" viewBox="0 0 186 186" fill="none" xmlns="http://www.w3.org/2000/svg">
<rect width="186" height="186" rx="36" fill="url(#paint0_linear_12_165)"/>
<path d="M40.4109 85.8641C39.7491 86.1624 39 85.6783 39 84.9524V60.6142C39 60.2374 39.2117 59.8926 39.5478 59.7223L73.9958 42.2557C74.3087 42.097 74.6818 42.1139 74.979 42.3002L111.452 65.1567C111.786 65.3656 112.211 65.3596 112.538 65.1414L144.945 43.5365C145.61 43.0934 146.5 43.5698 146.5 44.3685V70.4449C146.5 70.7902 146.322 71.111 146.029 71.2936L112.513 92.1801C112.198 92.3768 111.799 92.3821 111.478 92.194L74.9458 70.7615C74.6662 70.5975 74.3244 70.5792 74.0288 70.7124L40.4109 85.8641Z" fill="white"/>
<path d="M40.4109 138.364C39.7491 138.662 39 138.178 39 137.452V113.614C39 113.237 39.2117 112.893 39.5478 112.722L74.0014 95.2528C74.3113 95.0957 74.6804 95.1106 74.9765 95.2923L111.455 117.666C111.787 117.869 112.208 117.861 112.532 117.645L144.945 96.0365C145.61 95.5934 146.5 96.0698 146.5 96.8685V123.438C146.5 123.787 146.318 124.111 146.02 124.292L112.51 144.689C112.196 144.881 111.802 144.884 111.485 144.698L74.9458 123.262C74.6662 123.097 74.3244 123.079 74.0288 123.212L40.4109 138.364Z" fill="white"/>
<defs>
<linearGradient id="paint0_linear_12_165" x1="93" y1="0" x2="93" y2="186" gradientUnits="userSpaceOnUse">
<stop stop-color="#2563EB"/>
<stop offset="1" stop-color="#153885"/>
</linearGradient>
</defs>
</svg>
